  <svg width="374" height="432" xmlns="http://www.w3.org/2000/svg">
    <g>
      <title>background</title>
      <rect
        fill="none"
        id="canvas_background"
        height="434"
        width="376"
        y="-1"
        x="-1"
      />
    </g>
    <g>
      <title>Layer 1</title>
      <polygon
        id="svg_5"
        points="188.1498761177063,1.2564795017242432 187.93188905715942,429.37603759765625 373.2873578071594,322.3590393066406 355.71231508255005,312.2910461425781 205.22488832473755,399.77703857421875 205.6238751411438,11.071487426757812 "
        stroke-miterlimit="10"
        stroke-width="2"
        stroke="#FF5D3D"
        fill="none"
      />
      <polygon
        stroke="#FF5D3D"
        transform="rotate(0.4726581871509552 288.4040832519594,184.5397491455139) "
        id="svg_6"
        points="204.39686439051835,11.919798940278998 372.4773239852449,109.66385618426493 372.4773239852449,129.25127386555442 297.09326026454175,85.50305493078513 297.09326026454175,346.81406090374304 279.2660202743074,357.1597056705571 279.82006690516675,75.21046108136424 204.33085486903397,32.30585530657145 "
        stroke-miterlimit="10"
        stroke-width="2"
        fill="none"
      />
      <polygon
        id="svg_7"
        points="0.9183608293533325,321.55705136060715 0.9183608293533325,107.71353024244308 186.4835205078125,1.2564794421195984 186.281494140625,429.3760516047478 168.70449829101562,418.5900713801384 168.70449829101562,31.641524016857147 18.194473266601562,118.41451901197433 18.194473266601562,197.76351803541183 168.70449829101562,197.76351803541183 168.70449829101562,215.30851620435715 18.194473266601562,215.30851620435715 18.194473266601562,331.8310686945915 "
        stroke-miterlimit="10"
        stroke-width="2"
        stroke="#FF5D3D"
        fill="none"
      />
    </g>
  </svg>